# AST/ASF file generated using VICON BodyLanguage
# -----------------------------------------------
:version 1.10
:name VICON
:units
  mass 1.0
  length 0.45
  angle deg
:documentation
   .ast/.asf automatically generated from VICON data using
   VICON BodyBuilder and BodyLanguage model FoxedUp or BRILLIANT.MOD
:root
   order TX TY TZ RX RY RZ
   axis XYZ
   position 0 0 0  
   orientation 0 0 0 
:bonedata
  begin
     id 1 
     name lhipjoint
     direction 0.621036 -0.695554 0.361275 
     length 2.46325 
     axis 0 0 0  XYZ
  end
  begin
     id 2 
     name lfemur
     direction 0.34202 -0.939693 0  
     length 6.54784  
     axis 0 0 20  XYZ
    dof rx ry rz
    limits (-160.0 20.0)
           (-70.0 70.0)
           (-60.0 70.0)
  end
  begin
     id 3 
     name ltibia
     direction 0.34202 -0.939693 0   
     length 7.84737   
     axis 0 0 20   XYZ
    dof rx
    limits (-10.0 170.0)
  end
  begin
     id 4 
     name lfoot
     direction 0.0790693 -0.217241 0.97291   
     length 2.59747   
     axis -90 7.62852e-016 20   XYZ
    dof rx rz
    limits (-45.0 90.0)
           (-70.0 20.0)
  end
  begin
     id 5 
     name ltoes
     direction 1.53572e-011 -4.21898e-011 1   
     length 1.29919   
     axis -90 7.62852e-016 20   XYZ
    dof rx
    limits (-90.0 20.0)
  end
  begin
     id 6 
     name rhipjoint
     direction -0.602353 -0.708375 0.367935   
     length 2.41867  
     axis 0 0 0  XYZ 
  end
  begin
     id 7 
     name rfemur
     direction -0.34202 -0.939693 0   
     length 6.92065   
     axis 0 0 -20   XYZ
    dof rx ry rz
    limits (-160.0 20.0)
           (-70.0 70.0)
           (-70.0 60.0)
  end
  begin
     id 8 
     name rtibia
     direction -0.34202 -0.939693 0   
     length 7.88883   
     axis 0 0 -20   XYZ
    dof rx
    limits (-10.0 170.0)
 end
 begin
     id 9 
     name rfoot
     direction -0.0768692 -0.211196 0.974416   
     length 2.43714  
     axis -90 -7.62852e-016 -20   XYZ
    dof rx rz
    limits (-45.0 90.0)
           (-20.0 70.0)
  end
  begin
     id 10 
     name rtoes
     direction -1.53575e-011 -4.21933e-011 1   
     length 1.22113   
     axis -90 -7.62852e-016 -20   XYZ
    dof rx
    limits (-90.0 20.0)
  end
  begin
     id 11 
     name lowerback
     direction 0.0197937 0.98943 -0.143655   
     length 2.16931   
     axis 0 0 0   XYZ
    dof rx ry rz
    limits (-20.0 45.0)
           (-30.0 30.0)
           (-30.0 30.0)
  end
  begin
     id 12 
     name upperback
     direction -0.00183968 0.999975 0.00684288   
     length 2.17221   
     axis 0 0 0   XYZ
    dof rx ry rz
    limits (-20.0 45.0)
           (-30.0 30.0)
           (-30.0 30.0)
  end
  begin
     id 13 
     name thorax
     direction -0.00950244 0.997208 0.0740685   
     length 2.22549   
     axis 0 0 0   XYZ
    dof rx ry rz
    limits (-20.0 45.0)
           (-30.0 30.0)
           (-30.0 30.0)
  end
  begin
     id 14 
     name lowerneck
     direction 0.0218238 0.996215 0.0841425   
     length 1.77269   
     axis 0 0 0   XYZ
    dof rx ry rz
    limits (-20.0 45.0)
           (-30.0 30.0)
           (-30.0 30.0)
  end
  begin
     id 15 
     name upperneck
     direction -0.00430652 0.994214 -0.107332   
     length 1.76534   
     axis 0 0 0   XYZ
    dof rx ry rz
    limits (-20.0 45.0)
           (-30.0 30.0)
           (-30.0 30.0)
  end
  begin
     id 16
     name head
     direction -0.00328946 0.998959 -0.0454998  
     length 1.82634  
     axis 0 0 0   XYZ
    dof rx ry rz
    limits (-20.0 45.0)
           (-30.0 30.0)
           (-30.0 30.0)
  end
  begin
     id 17 
     name lclavicle
     direction 0.970962 0.239191 0.00450212  
     length 3.84872  
     axis 0 0 0   XYZ
    dof ry rz
    limits (-20.0 10.0)
           (0.0 20.0)
  end
  begin
     id 18 
     name lhumerus
     direction 1 -4.48966e-011 5.74696e-028   
     length 5.22771   
     axis 180 -30 -90   XYZ
    dof rx ry rz
    limits (-60.0 90.0)
           (-90.0 90.0)
           (-90.0 90.0)
  end
  begin
     id 19
     name lradius
     direction 1 -4.4896e-011 4.25109e-027   
     length 3.45251   
     axis 180 -30 -90   XYZ
    dof rx
    limits (-10.0 170.0)
  end
  begin
     id 20
     name lwrist
     direction 1 -4.48971e-011 1.15382e-027   
     length 1.72626   
     axis -5.52449e-016 90 90   XYZ
    dof ry
    limits (-180.0 0.0)
 end
  begin
     id 21 
     name lhand
     direction 1 -4.49034e-011 2.30765e-027   
     length 0.552119   
     axis -1.47248e-015 90 90   XYZ
    dof rx rz
    limits (-90.0 90.0)
           (-45.0 45.0)
  end
  begin
     id 22 
     name lfingers
     direction 1 -4.48951e-011 4.61529e-027   
     length 0.445133   
     axis -2.94495e-015 90 90   XYZ
    dof rx
    limits (0.0 90.0)
  end
  begin
     id 23
     name lthumb
     direction 0.707107 -6.34991e-011 0.707107   
     length 0.639124   
     axis -90 45 2.85299e-015   XYZ
    dof rx rz
    limits (-45.0 45.0)
           (-45.0 45.0)
  end
  begin
     id 24 
     name rclavicle
     direction -0.97424 0.222511 -0.0366699   
     length 3.73439  
     axis 0 0 0   XYZ 
    dof ry rz
    limits (-10.0 20.0)
           (-20.0 0.0)
  end
  begin
     id 25 
     name rhumerus
     direction -1 -4.48956e-011 -4.97258e-028  
     length 5.2398   
     axis 180 30 90   XYZ
    dof rx ry rz
    limits (-90.0 60.0)
           (-90.0 90.0)
           (-90.0 90.0)
  end
  begin
     id 26 
     name rradius
     direction -1 -4.4897e-011 -1.72611e-027   
     length 3.48042   
     axis 180 30 90   XYZ
    dof rx
    limits (-10.0 170.0)
  end
  begin
     id 27 
     name rwrist
     direction -1 -4.48976e-011 1.15382e-027   
     length 1.74021   
     axis -5.52449e-016 -90 -90   XYZ
    dof ry
    limits (-180.0 0.0)
  end
  begin
     id 28
     name rhand
     direction -1 -4.48963e-011 2.30765e-027   
     length 0.618713   
     axis -1.47248e-015 -90 -90   XYZ
    dof rx rz
    limits (-90.0 90.0)
           (-45.0 45.0)
  end
  begin
     id 29
     name rfingers
     direction -1 -4.4888e-011 4.61529e-027   
     length 0.498823   
     axis -2.94495e-015 -90 -90   XYZ
    dof rx
    limits (0.0 90.0)
  end
  begin
     id 30
     name rthumb
     direction -0.707107 -6.34968e-011 0.707107   
     length 0.716213   
     axis -90 -45 -2.85299e-015   XYZ
    dof rx rz
    limits (-45.0 45.0)
           (-45.0 45.0)
  end
:hierarchy
  begin
    root lhipjoint rhipjoint lowerback
    lhipjoint lfemur
    lfemur ltibia
    ltibia lfoot
    lfoot ltoes
    rhipjoint rfemur
    rfemur rtibia
    rtibia rfoot
    rfoot rtoes
    lowerback upperback
    upperback thorax
    thorax lowerneck lclavicle rclavicle
    lowerneck upperneck
    upperneck head
    lclavicle lhumerus
    lhumerus lradius
    lradius lwrist
    lwrist lhand lthumb
    lhand lfingers
    rclavicle rhumerus
    rhumerus rradius
    rradius rwrist
    rwrist rhand rthumb
    rhand rfingers
  end

#!OML:ASF G:\JayActor3\Patient Classification 1\Patient 1\Session 5\male.ASF
:FULLY-SPECIFIED
:DEGREES
32
root 49.0197 16.3165 -4.39544 144.506 -87.7856 -144.723
lowerback -2.11222 -0.994663 1.09519
upperback 2.88153 -1.40354 0.190131
thorax 4.13007 -0.677204 -0.49756
lowerneck -4.1548 -3.78954 -1.66674
upperneck -0.223359 -5.07319 5.07587
head 0.817399 -2.49832 1.76046
rclavicle 8.93289e-015 -2.33572e-015
rhumerus -27.9144 -10.3839 -85.5644
rradius 25.1608
rwrist 3.32884
rhand -19.1542 -7.31264
rfingers 7.12502
rthumb 7.15627 -37.1716
lclavicle 8.93289e-015 -2.33572e-015
lhumerus -30.9002 3.13529 85.1403
lradius 29.0096
lwrist 17.4165
lhand -17.875 14.7041
lfingers 7.12502
lthumb 8.391 44.5174
rfemur -10.6466 4.29659 21.4019
rtibia 35.2511
rfoot -25.5044 -17.4178
rtoes 2.13731
lfemur -1.43059 4.12091 -15.1362
ltibia 17.8628
lfoot -15.235 13.0845
ltoes -6.85624
33
root 49.0439 16.3197 -4.38895 141.418 -87.8168 -141.567
lowerback -2.21163 -1.0241 1.21292
upperback 2.91297 -1.45064 0.208998
thorax 4.21618 -0.696677 -0.549142
lowerneck -4.25666 -3.80762 -1.66797
upperneck -0.0265161 -5.1022 5.02812
head 0.896305 -2.50875 1.74142
rclavicle 4.00675e-015 1.63997e-015
rhumerus -27.8877 -10.4813 -85.5406
rradius 25.0444
rwrist 3.32448
rhand -19.0621 -7.33737
rfingers 7.12502
rthumb 7.24525 -37.1933
lclavicle 4.00675e-015 1.63997e-015
lhumerus -30.8565 3.17381 85.1394
lradius 28.8661
lwrist 17.3563
lhand -17.7827 14.7985
lfingers 7.12502
lthumb 8.48008 44.6082
rfemur -10.7576 4.05287 21.4156
rtibia 35.1583
rfoot -25.3758 -17.2994
rtoes 2.16993
lfemur -1.61146 4.04245 -15.0972
ltibia 17.8856
lfoot -15.2593 13.1128
ltoes -6.70736
34
root 49.0701 16.3231 -4.38353 138.248 -87.8407 -138.309
lowerback -2.26693 -1.0498 1.31609
upperback 2.9129 -1.49111 0.232122
thorax 4.24496 -0.713681 -0.586558
lowerneck -4.36268 -3.82867 -1.68312
upperneck 0.184852 -5.13528 4.99777
head 0.981865 -2.52089 1.73017
rclavicle 1.60208e-014 -4.96962e-015
rhumerus -27.9194 -10.521 -85.5236
rradius 24.9899
rwrist 3.2505
rhand -18.9982 -7.3681
rfingers 7.12502
rthumb 7.30687 -37.2219
lclavicle 1.60208e-014 -4.96962e-015
lhumerus -30.8424 3.20972 85.1378
lradius 28.7274
lwrist 17.2872
lhand -17.6834 14.8887
lfingers 7.12502
lthumb 8.57592 44.6946
rfemur -10.8976 3.87306 21.4479
rtibia 35.0639
rfoot -25.2762 -17.2553
rtoes 2.1922
lfemur -1.82999 3.98353 -15.0482
ltibia 17.9145
lfoot -15.2871 13.1066
ltoes -6.56138
35
root 49.0985 16.3266 -4.3797 135.429 -87.8616 -135.387
lowerback -2.26515 -1.06766 1.38547
upperback 2.8807 -1.51797 0.254823
thorax 4.2089 -0.725468 -0.603077
lowerneck -4.46222 -3.85526 -1.70305
upperneck 0.400262 -5.17601 4.98139
head 1.06873 -2.53683 1.72417
rclavicle 9.05713e-015 -2.5842e-015
rhumerus -28.0076 -10.5308 -85.5069
rradius 24.9798
rwrist 3.15589
rhand -18.9627 -7.38802
rfingers 7.12502
rthumb 7.34118 -37.2407
lclavicle 9.05713e-015 -2.5842e-015
lhumerus -30.8539 3.24577 85.1317
lradius 28.578
lwrist 17.2074
lhand -17.6015 14.8956
lfingers 7.12502
lthumb 8.65494 44.6982
rfemur -11.065 3.78421 21.4859
rtibia 34.9787
rfoot -25.2208 -17.2815
rtoes 2.23909
lfemur -2.07266 3.95591 -15.0012
ltibia 17.9402
lfoot -15.3175 13.0603
ltoes -6.4392
36
root 49.1289 16.3296 -4.37725 133.008 -87.8884 -132.862
lowerback -2.20285 -1.07734 1.41957
upperback 2.82442 -1.53048 0.272065
thorax 4.11446 -0.731653 -0.602975
lowerneck -4.55062 -3.88908 -1.72451
upperneck 0.612314 -5.22684 4.98242
head 1.15389 -2.5579 1.72398
rclavicle -6.00702e-015 -6.65929e-015
rhumerus -28.1394 -10.535 -85.4886
rradius 25.0012
rwrist 3.07248
rhand -18.9519 -7.39419
rfingers 7.12502
rthumb 7.35162 -37.2465
lclavicle -6.00702e-015 -6.65929e-015
lhumerus -30.8845 3.27149 85.1198
lradius 28.4202
lwrist 17.1233
lhand -17.5511 14.8276
lfingers 7.12502
lthumb 8.70351 44.6281
rfemur -11.2485 3.77559 21.5189
rtibia 34.9086
rfoot -25.2134 -17.3594
rtoes 2.31258
lfemur -2.32577 3.96471 -14.9627
ltibia 17.9606
lfoot -15.3459 12.9695
ltoes -6.37781
37
root 49.161 16.3319 -4.37578 130.915 -87.9241 -130.671
lowerback -2.0934 -1.0811 1.42318
upperback 2.75912 -1.53252 0.28408
thorax 3.98479 -0.73382 -0.589438
lowerneck -4.61834 -3.926 -1.74916
upperneck 0.792742 -5.28136 5.00333
head 1.22661 -2.58137 1.73118
rclavicle 4.3422e-015 -3.27995e-015
rhumerus -28.2921 -10.5311 -85.4707
rradius 25.0441
rwrist 3.0076
rhand -18.97 -7.3866
rfingers 7.12502
rthumb 7.33412 -37.2395
lclavicle 4.3422e-015 -3.27995e-015
lhumerus -30.923 3.28478 85.1055
lradius 28.2651
lwrist 17.0448
lhand -17.5248 14.7049
lfingers 7.12502
lthumb 8.72895 44.5044
rfemur -11.4362 3.82599 21.5414
rtibia 34.855
rfoot -25.2469 -17.4639
rtoes 2.41122
lfemur -2.57952 4.01308 -14.9342
ltibia 17.9807
lfoot -15.3736 12.8343
ltoes -6.39968
38
root 49.1944 16.3333 -4.37469 128.975 -87.9685 -128.65
lowerback -1.94825 -1.08291 1.40763
upperback 2.69629 -1.53055 0.291627
thorax 3.83797 -0.734665 -0.568813
lowerneck -4.66305 -3.9626 -1.77228
upperneck 0.930793 -5.33472 5.03668
head 1.28236 -2.60504 1.74278
rclavicle 5.09386e-016 -2.48481e-016
rhumerus -28.448 -10.5195 -85.455
rradius 25.099
rwrist 2.97777
rhand -19.0068 -7.38128
rfingers 7.12502
rthumb 7.2986 -37.2354
lclavicle 5.09386e-016 -2.48481e-016
lhumerus -30.9568 3.3002 85.0878
lradius 28.1124
lwrist 16.9624
lhand -17.5203 14.557
lfingers 7.12502
lthumb 8.73323 44.3564
rfemur -11.6152 3.90084 21.5508
rtibia 34.8155
rfoot -25.3113 -17.5642
rtoes 2.52214
lfemur -2.82762 4.09794 -14.9142
ltibia 18.0099
lfoot -15.3994 12.6623
ltoes -6.50893
39
root 49.2288 16.3339 -4.37338 127.033 -88.0134 -126.647
lowerback -1.7848 -1.08399 1.38994
upperback 2.65204 -1.52774 0.296781
thorax 3.70018 -0.735083 -0.54927
lowerneck -4.68604 -3.9966 -1.79581
upperneck 1.01292 -5.38331 5.08369
head 1.31693 -2.62728 1.75969
rclavicle 1.14922e-014 1.78906e-015
rhumerus -28.5807 -10.4969 -85.445
rradius 25.1582
rwrist 2.97642
rhand -19.0577 -7.38906
rfingers 7.12502
rthumb 7.24943 -37.2449
lclavicle 1.14922e-014 1.78906e-015
lhumerus -30.9758 3.31508 85.0698
lradius 27.983
lwrist 16.8859
lhand -17.5278 14.4428
lfingers 7.12502
lthumb 8.726 44.2425
rfemur -11.7767 3.97242 21.5526
rtibia 34.7868
rfoot -25.39 -17.6383
rtoes 2.60844
lfemur -3.06542 4.20236 -14.8973
ltibia 18.0561
lfoot -15.4307 12.4734
ltoes -6.68765
40
root 49.2639 16.3338 -4.37143 125.005 -88.0527 -124.581
lowerback -1.60898 -1.08738 1.38138
upperback 2.62991 -1.5289 0.302598
thorax 3.57813 -0.737167 -0.534381
lowerneck -4.69322 -4.02367 -1.83468
upperneck 1.04315 -5.42075 5.15195
head 1.33313 -2.64472 1.78706
rclavicle -1.72073e-014 -4.07509e-015
rhumerus -28.6825 -10.4524 -85.4415
rradius 25.2139
rwrist 2.99182
rhand -19.1179 -7.40583
rfingers 7.12502
rthumb 7.1913 -37.2636
lclavicle -1.72073e-014 -4.07509e-015
lhumerus -30.9773 3.34318 85.0522
lradius 27.8816
lwrist 16.8127
lhand -17.5454 14.4169
lfingers 7.12502
lthumb 8.70901 44.2173
rfemur -11.9168 4.01574 21.5506
rtibia 34.7662
rfoot -25.4725 -17.6765
rtoes 2.62993
lfemur -3.29246 4.3119 -14.8803
ltibia 18.1242
lfoot -15.4688 12.2891
ltoes -6.92953
41
root 49.2995 16.3332 -4.36857 123.079 -88.0805 -122.638
lowerback -1.42326 -1.0917 1.38571
upperback 2.63227 -1.53236 0.309917
thorax 3.47557 -0.740011 -0.525356
lowerneck -4.6925 -4.04378 -1.87672
upperneck 1.02391 -5.44714 5.22601
head 1.33207 -2.65743 1.81764
rclavicle -9.77151e-015 3.67752e-015
rhumerus -28.7446 -10.3852 -85.4448
rradius 25.2593
rwrist 3.01562
rhand -19.1776 -7.42712
rfingers 7.12502
rthumb 7.13373 -37.2869
lclavicle -9.77151e-015 3.67752e-015
lhumerus -30.9584 3.39826 85.0313
lradius 27.7988
lwrist 16.735
lhand -17.5668 14.4236
lfingers 7.12502
lthumb 8.68837 44.2248
rfemur -12.0383 4.02693 21.5447
rtibia 34.7528
rfoot -25.5552 -17.672
rtoes 2.57247
lfemur -3.50748 4.41198 -14.8654
ltibia 18.2146
lfoot -15.5216 12.1291
ltoes -7.19089
